<mxfile host="app.diagrams.net" modified="2023-10-09T07:48:47.098Z" agent="Mozilla/5.0 (Windows NT 10.0; Win64; x64; rv:109.0) Gecko/20100101 Firefox/118.0" version="22.0.4" etag="JBpq0Xc-ROCVCjLFdqmV" type="github">
  <diagram name="Page-1" id="BYAV_LJpqmCka0B5G_Za">
    <mxGraphModel>
      <root>
        <mxCell id="0" />
        <mxCell id="1" parent="0" />
      </root>
    </mxGraphModel>
  </diagram>
</mxfile>
